# xmcd
#
# Track frame offsets: 
#        150
#        10502
#        19983
#        39704
#        53727
#        69598
#        89706
#        108822
#        130312
#        155490
#        167037
#        186148
#        211037
#        234971
#        247935
#        268403
#        287210
#        308359
#
# Disc length: 4250 seconds
#
# Revision: 0
# Processed by: cddbd v1.5.2PL0 Copyright (c) Steve Scherf et al.
# Submitted via: ExactAudioCopyFreeDBPlugin 1.0
#
DISCID=f0109812
DTITLE=Les Tontons Flingueurs - Juste Reponse
DYEAR=2010
DGENRE=Hip-Hop
TTITLE0=Les Tontons Flingueurs - Intro
TTITLE1=Les Tontons Flingueurs - Egotrip Life
TTITLE2=Les Tontons Flingueurs  - Tontons Flingueurs au M.I.C.
TTITLE3=Les Tontons Flingueurs - Predator
TTITLE4=Les Tontons Flingueurs - Mon Art Martial
TTITLE5=Les Tontons Flingueurs - Depuis des Lustres
TTITLE6=Les Tontons Flingueurs - Larmes aux Poings feat. Lextaz
TTITLE7=Les Tontons Flingueurs - Sphère Obscure
TTITLE8=Les Tontons Flingueurs - Juste Réponse
TTITLE9=Les Tontons Flingueurs - Enfant de la Rue
TTITLE10=Les Tontons Flingueurs - Chaque Mesure feat. Poupone
TTITLE11=Les Tontons Flingueurs - J'Fais Té-sau le Ghetto
TTITLE12=Les Tontons Flingueurs - Lettres de Noblesse
TTITLE13=Les Tontons Flingueurs - T'en Dis Quoi?
TTITLE14=Les Tontons Flingueurs - On Crame l'Instru feat. Particules L
TTITLE14=iées
TTITLE15=Les Tontons Flingueurs - Le Shadow de la Méduse
TTITLE16=Les Tontons Flingueurs - Faut Qu'On s'Tire de là
TTITLE17=Les Tontons Flingueurs - Outro
EXTD=
EXTT0=
EXTT1=
EXTT2=
EXTT3=
EXTT4=
EXTT5=
EXTT6=
EXTT7=
EXTT8=
EXTT9=
EXTT10=
EXTT11=
EXTT12=
EXTT13=
EXTT14=
EXTT15=
EXTT16=
EXTT17=
PLAYORDER=
